<?xml version="1.0" encoding="utf-8"?>
<!-- Generator: Adobe Illustrator 19.2.1, SVG Export Plug-In . SVG Version: 6.00 Build 0)  -->
<svg version="1.1" id="Layer_1" xmlns="http://www.w3.org/2000/svg" xmlns:xlink="http://www.w3.org/1999/xlink" x="0px" y="0px"
	 viewBox="0 0 60 60" style="enable-background:new 0 0 60 60;" xml:space="preserve">
<style type="text/css">
	.st0{fill:#B69853;}
</style>
<g>
	<path class="st0" d="M60,30C60,13.5,46.7,0,30.2,0h0.2v5.9h-0.2c13.3,0,24,10.8,24,24.1S43.3,54.1,30,54.1C16.8,54.1,6,43.3,6,30
		c0-0.2,0-0.4,0-0.6l-3-2.9l-3,3c0,0.2,0,0.3,0,0.5c0,16.5,13.5,30,30,30S60,46.5,60,30z"/>
	<path class="st0" d="M6,28.3c0-0.3,0-0.6,0.1-0.9L6,27.3V28.3z"/>
</g>
</svg>
