<?xml version="1.0" encoding="utf-8"?>
<!-- Generator: Adobe Illustrator 19.2.1, SVG Export Plug-In . SVG Version: 6.00 Build 0)  -->
<svg version="1.1" id="Layer_1" xmlns="http://www.w3.org/2000/svg" xmlns:xlink="http://www.w3.org/1999/xlink" x="0px" y="0px"
	 viewBox="0 0 36 36" style="enable-background:new 0 0 36 36;" xml:space="preserve">
<style type="text/css">
	.st0{fill:#B69853;}
</style>
<g>
	<g>
		<path class="st0" d="M10.9,14.7h2c-0.2,0.1-0.3,0.2-0.3,0.4c0,0.1,0.1,0.4,0.2,0.6l1.9,4.6l1.8-4.6c0.1-0.2,0.1-0.4,0.1-0.5
			c0-0.1,0-0.2-0.1-0.3s-0.2-0.1-0.3-0.2H18c-0.2,0-0.3,0.2-0.5,0.4c-0.2,0.2-0.3,0.5-0.5,0.8l-2.6,6.4l-2.6-6.5
			C11.6,15.2,11.2,14.8,10.9,14.7z"/>
		<path class="st0" d="M19.7,19.9c0.4,1.1,1,1.7,2,1.7c0.4,0,0.8-0.1,1-0.3c0.3-0.2,0.4-0.5,0.4-0.9c0-0.2,0-0.5-0.1-0.6
			c-0.1-0.2-0.2-0.3-0.4-0.5c-0.2-0.1-0.3-0.3-0.5-0.4s-0.4-0.2-0.6-0.3c-0.2-0.1-0.4-0.2-0.6-0.4c-0.2-0.1-0.4-0.3-0.5-0.4
			c-0.2-0.2-0.3-0.3-0.4-0.6c-0.1-0.2-0.1-0.5-0.1-0.7c0-0.6,0.2-1,0.6-1.4c0.4-0.4,1-0.5,1.6-0.5c0.3,0,0.6,0,0.9,0.1
			c0.3,0.1,0.5,0.2,0.7,0.4v1.5c-0.1-0.5-0.4-0.8-0.6-1c-0.3-0.2-0.6-0.4-1.1-0.4c-0.4,0-0.7,0.1-1,0.4c-0.3,0.2-0.4,0.5-0.4,0.8
			c0,0.3,0.1,0.5,0.3,0.7c0.2,0.2,0.5,0.4,0.8,0.7l0.6,0.3c0.5,0.3,0.8,0.5,1.1,0.7c0.2,0.2,0.4,0.4,0.5,0.7
			c0.1,0.2,0.2,0.5,0.2,0.8c0,0.4-0.1,0.7-0.3,1c-0.2,0.3-0.5,0.5-0.8,0.7c-0.4,0.2-0.8,0.3-1.3,0.3c-0.4,0-0.7-0.1-1-0.2
			c-0.3-0.1-0.6-0.2-0.9-0.4V19.9z"/>
	</g>
</g>
<g id="XMLID_183_">
	<path class="st0" d="M18,36C8.1,36,0,27.9,0,18S8.1,0,18,0s18,8.1,18,18S27.9,36,18,36z M18,1C8.6,1,1,8.6,1,18s7.6,17,17,17
		s17-7.6,17-17S27.4,1,18,1z"/>
</g>
</svg>
